<?xml version="1.0" encoding="UTF-8" standalone="no"?>
<!DOCTYPE svg PUBLIC "-//W3C//DTD SVG 1.1//EN"
 "http://www.w3.org/Graphics/SVG/1.1/DTD/svg11.dtd">
<!-- Generated by graphviz version 2.42.3 ()
 -->
<!-- Title: graphname Pages: 1 -->
<svg width="291pt" height="313pt"
 viewBox="0.00 0.00 291.00 313.00" xmlns="http://www.w3.org/2000/svg" xmlns:xlink="http://www.w3.org/1999/xlink">
<g id="graph0" class="graph" transform="scale(1 1) rotate(0) translate(4 309)">
<title>graphname</title>
<polygon fill="#fafafa" stroke="transparent" points="-4,4 -4,-309 287,-309 287,4 -4,4"/>
<g id="clust1" class="cluster">
<title>cluster_openstack</title>
<polygon fill="#f5f5f5" stroke="#f5f5f5" points="8,-8 8,-297 275,-297 275,-8 8,-8"/>
<text text-anchor="start" x="73.5" y="-23" font-family="Helvetica,sans-Serif" font-weight="bold" font-size="20.00" fill="#707070">Provider openstack</text>
</g>
<g id="clust2" class="cluster">
<title>cluster_openstack_</title>
<polygon fill="#eeeeee" stroke="#eeeeee" points="16,-54 16,-289 267,-289 267,-54 16,-54"/>
<text text-anchor="start" x="137.5" y="-58.2" font-family="Helvetica,sans-Serif" font-size="1.00" fill="#383838"> </text>
</g>
<!-- Subnet::::7704de0b&#45;5838&#45;4eaf&#45;9be5&#45;9e136f460951 -->
<g id="node1" class="node">
<title>Subnet::::7704de0b&#45;5838&#45;4eaf&#45;9be5&#45;9e136f460951</title>
<polygon fill="#e5e5e5" stroke="#dddddd" points="146,-281 24,-281 24,-223 146,-223 146,-281"/>
<text text-anchor="start" x="36" y="-261.2" font-family="Helvetica,sans-Serif" font-weight="bold" font-size="16.00" fill="#707070">Subnet</text>
<text text-anchor="start" x="36" y="-236.2" font-family="Helvetica,sans-Serif" font-size="16.00" fill="#383838">::10.0.0.0/16</text>
</g>
<!-- Network::::dfb3e958&#45;5c68&#45;4137&#45;9ffa&#45;f02fdc6a0b16 -->
<g id="node3" class="node">
<title>Network::::dfb3e958&#45;5c68&#45;4137&#45;9ffa&#45;f02fdc6a0b16</title>
<polygon fill="#e5e5e5" stroke="#dddddd" points="259,-205 182,-205 182,-147 259,-147 259,-205"/>
<text text-anchor="start" x="194.5" y="-185.2" font-family="Helvetica,sans-Serif" font-weight="bold" font-size="16.00" fill="#707070">Network</text>
<text text-anchor="start" x="194.5" y="-160.2" font-family="Helvetica,sans-Serif" font-size="16.00" fill="#383838">rhmig</text>
</g>
<!-- Subnet::::7704de0b&#45;5838&#45;4eaf&#45;9be5&#45;9e136f460951&#45;&gt;Network::::dfb3e958&#45;5c68&#45;4137&#45;9ffa&#45;f02fdc6a0b16 -->
<g id="edge1" class="edge">
<title>Subnet::::7704de0b&#45;5838&#45;4eaf&#45;9be5&#45;9e136f460951&#45;&gt;Network::::dfb3e958&#45;5c68&#45;4137&#45;9ffa&#45;f02fdc6a0b16</title>
<path fill="none" stroke="#707070" d="M137.23,-222.83C148.95,-216.16 161.35,-209.1 172.86,-202.55"/>
<polygon fill="#707070" stroke="#707070" points="174.92,-205.41 181.88,-197.42 171.46,-199.32 174.92,-205.41"/>
</g>
<!-- Volume::::5a57981e&#45;5afb&#45;4d61&#45;a52d&#45;e3239a7568ed -->
<g id="node2" class="node">
<title>Volume::::5a57981e&#45;5afb&#45;4d61&#45;a52d&#45;e3239a7568ed</title>
<polygon fill="#e5e5e5" stroke="#dddddd" points="135,-205 35,-205 35,-147 135,-147 135,-205"/>
<text text-anchor="start" x="47" y="-185.2" font-family="Helvetica,sans-Serif" font-weight="bold" font-size="16.00" fill="#707070">Volume</text>
<text text-anchor="start" x="47" y="-160.2" font-family="Helvetica,sans-Serif" font-size="16.00" fill="#383838">extra&#45;disk</text>
</g>
<!-- Server::::0c0434fa&#45;b0a2&#45;4988&#45;9d17&#45;3144cff4a4ad -->
<g id="node4" class="node">
<title>Server::::0c0434fa&#45;b0a2&#45;4988&#45;9d17&#45;3144cff4a4ad</title>
<polygon fill="#e5e5e5" stroke="#dddddd" points="127.5,-129 42.5,-129 42.5,-71 127.5,-71 127.5,-129"/>
<text text-anchor="start" x="55" y="-109.2" font-family="Helvetica,sans-Serif" font-weight="bold" font-size="16.00" fill="#707070">Server</text>
<text text-anchor="start" x="55" y="-84.2" font-family="Helvetica,sans-Serif" font-size="16.00" fill="#383838">s1&#45;2&#45;uk1</text>
</g>
<!-- Server::::0c0434fa&#45;b0a2&#45;4988&#45;9d17&#45;3144cff4a4ad&#45;&gt;Network::::dfb3e958&#45;5c68&#45;4137&#45;9ffa&#45;f02fdc6a0b16 -->
<g id="edge2" class="edge">
<title>Server::::0c0434fa&#45;b0a2&#45;4988&#45;9d17&#45;3144cff4a4ad&#45;&gt;Network::::dfb3e958&#45;5c68&#45;4137&#45;9ffa&#45;f02fdc6a0b16</title>
<path fill="none" stroke="#707070" d="M127.51,-123.63C141.83,-131.79 157.98,-140.98 172.7,-149.36"/>
<polygon fill="#707070" stroke="#707070" points="171.23,-152.55 181.65,-154.45 174.69,-146.46 171.23,-152.55"/>
</g>
</g>
</svg>
