<?xml version="1.0" encoding="UTF-8" standalone="no"?>
<!DOCTYPE svg PUBLIC "-//W3C//DTD SVG 1.1//EN"
 "http://www.w3.org/Graphics/SVG/1.1/DTD/svg11.dtd">
<!-- Generated by graphviz version 2.42.3 ()
 -->
<!-- Title: graphname Pages: 1 -->
<svg width="291pt" height="313pt"
 viewBox="0.00 0.00 291.00 313.00" xmlns="http://www.w3.org/2000/svg" xmlns:xlink="http://www.w3.org/1999/xlink">
<g id="graph0" class="graph" transform="scale(1 1) rotate(0) translate(4 309)">
<title>graphname</title>
<polygon fill="#fafafa" stroke="transparent" points="-4,4 -4,-309 287,-309 287,4 -4,4"/>
<g id="clust1" class="cluster">
<title>cluster_openstack</title>
<polygon fill="#f5f5f5" stroke="#f5f5f5" points="8,-8 8,-297 275,-297 275,-8 8,-8"/>
<text text-anchor="start" x="73.5" y="-23" font-family="Helvetica,sans-Serif" font-weight="bold" font-size="20.00" fill="#707070">Provider openstack</text>
</g>
<g id="clust2" class="cluster">
<title>cluster_openstack_</title>
<polygon fill="#eeeeee" stroke="#eeeeee" points="16,-54 16,-289 267,-289 267,-54 16,-54"/>
<text text-anchor="start" x="137.5" y="-58.2" font-family="Helvetica,sans-Serif" font-size="1.00" fill="#383838"> </text>
</g>
<!-- Network::::dfb3e958&#45;5c68&#45;4137&#45;9ffa&#45;f02fdc6a0b16 -->
<g id="node1" class="node">
<title>Network::::dfb3e958&#45;5c68&#45;4137&#45;9ffa&#45;f02fdc6a0b16</title>
<polygon fill="#e5e5e5" stroke="#dddddd" points="259,-167 182,-167 182,-109 259,-109 259,-167"/>
<text text-anchor="start" x="194.5" y="-147.2" font-family="Helvetica,sans-Serif" font-weight="bold" font-size="16.00" fill="#707070">Network</text>
<text text-anchor="start" x="194.5" y="-122.2" font-family="Helvetica,sans-Serif" font-size="16.00" fill="#383838">rhmig</text>
</g>
<!-- Volume::::5a57981e&#45;5afb&#45;4d61&#45;a52d&#45;e3239a7568ed -->
<g id="node2" class="node">
<title>Volume::::5a57981e&#45;5afb&#45;4d61&#45;a52d&#45;e3239a7568ed</title>
<polygon fill="#e5e5e5" stroke="#dddddd" points="135,-281 35,-281 35,-223 135,-223 135,-281"/>
<text text-anchor="start" x="47" y="-261.2" font-family="Helvetica,sans-Serif" font-weight="bold" font-size="16.00" fill="#707070">Volume</text>
<text text-anchor="start" x="47" y="-236.2" font-family="Helvetica,sans-Serif" font-size="16.00" fill="#383838">extra&#45;disk</text>
</g>
<!-- Subnet::::7704de0b&#45;5838&#45;4eaf&#45;9be5&#45;9e136f460951 -->
<g id="node3" class="node">
<title>Subnet::::7704de0b&#45;5838&#45;4eaf&#45;9be5&#45;9e136f460951</title>
<polygon fill="#e5e5e5" stroke="#dddddd" points="146,-205 24,-205 24,-147 146,-147 146,-205"/>
<text text-anchor="start" x="36" y="-185.2" font-family="Helvetica,sans-Serif" font-weight="bold" font-size="16.00" fill="#707070">Subnet</text>
<text text-anchor="start" x="36" y="-160.2" font-family="Helvetica,sans-Serif" font-size="16.00" fill="#383838">::10.0.0.0/16</text>
</g>
<!-- Subnet::::7704de0b&#45;5838&#45;4eaf&#45;9be5&#45;9e136f460951&#45;&gt;Network::::dfb3e958&#45;5c68&#45;4137&#45;9ffa&#45;f02fdc6a0b16 -->
<g id="edge1" class="edge">
<title>Subnet::::7704de0b&#45;5838&#45;4eaf&#45;9be5&#45;9e136f460951&#45;&gt;Network::::dfb3e958&#45;5c68&#45;4137&#45;9ffa&#45;f02fdc6a0b16</title>
<path fill="none" stroke="#707070" d="M146.11,-158.89C154.87,-156.4 163.77,-153.86 172.23,-151.46"/>
<polygon fill="#707070" stroke="#707070" points="173.24,-154.81 181.9,-148.7 171.33,-148.07 173.24,-154.81"/>
</g>
<!-- Server::::0c0434fa&#45;b0a2&#45;4988&#45;9d17&#45;3144cff4a4ad -->
<g id="node4" class="node">
<title>Server::::0c0434fa&#45;b0a2&#45;4988&#45;9d17&#45;3144cff4a4ad</title>
<polygon fill="#e5e5e5" stroke="#dddddd" points="127.5,-129 42.5,-129 42.5,-71 127.5,-71 127.5,-129"/>
<text text-anchor="start" x="55" y="-109.2" font-family="Helvetica,sans-Serif" font-weight="bold" font-size="16.00" fill="#707070">Server</text>
<text text-anchor="start" x="55" y="-84.2" font-family="Helvetica,sans-Serif" font-size="16.00" fill="#383838">s1&#45;2&#45;uk1</text>
</g>
<!-- Server::::0c0434fa&#45;b0a2&#45;4988&#45;9d17&#45;3144cff4a4ad&#45;&gt;Network::::dfb3e958&#45;5c68&#45;4137&#45;9ffa&#45;f02fdc6a0b16 -->
<g id="edge2" class="edge">
<title>Server::::0c0434fa&#45;b0a2&#45;4988&#45;9d17&#45;3144cff4a4ad&#45;&gt;Network::::dfb3e958&#45;5c68&#45;4137&#45;9ffa&#45;f02fdc6a0b16</title>
<path fill="none" stroke="#707070" d="M127.51,-111.82C141.56,-115.82 157.37,-120.31 171.86,-124.44"/>
<polygon fill="#707070" stroke="#707070" points="171.07,-127.85 181.65,-127.23 172.99,-121.12 171.07,-127.85"/>
</g>
</g>
</svg>
